<svg width="103" height="79" viewBox="0 0 103 79" fill="none" xmlns="http://www.w3.org/2000/svg">
<path d="M77.8612 50.3808V49.4953C77.6178 49.8012 77.3731 50.0968 77.1271 50.386H77.1207L77.1052 50.4118C75.1541 52.6953 73.0845 54.4651 70.8964 55.7172C68.4223 57.1345 65.7977 57.8419 63.0223 57.8419C60.7002 57.8419 58.5804 57.3862 56.6627 56.4762C54.7438 55.5662 53.067 54.2882 51.6284 52.6437C50.1899 51.0004 49.0797 49.09 48.2967 46.9149C47.5136 44.7398 47.1234 42.362 47.1234 39.7816C47.1234 37.3536 47.4763 35.052 48.1833 32.8756C48.8891 30.7005 49.9245 28.7771 51.2871 27.1081C52.6497 25.439 54.2776 24.1236 56.1708 23.162C58.0639 22.2016 60.1452 21.7201 62.417 21.7201C65.2941 21.7201 67.969 22.4288 70.4417 23.8448C72.9145 25.2622 74.8064 27.3107 76.12 29.9918L83.9181 24.2243C82.1009 20.6332 79.3874 17.7739 75.7787 15.6492C72.1701 13.5245 67.8158 12.4621 62.7183 12.4621C59.0337 12.4621 55.6015 13.1579 52.4217 14.5494C49.242 15.9409 46.4782 17.8888 44.1317 20.3931C43.5251 21.0398 42.9533 21.7123 42.4149 22.4094V11.8477H31.9664V39.7945C31.9664 42.7493 31.8402 45.3168 31.5877 47.4945C31.334 49.6734 30.8936 51.4393 30.2625 52.7908C29.6314 54.1423 28.6733 55.157 27.3854 55.8334C26.0975 56.5098 24.4709 56.8467 22.5018 56.8467C20.2299 56.8467 18.2621 56.5317 16.5968 55.8979C14.9316 55.2654 13.7699 54.7478 13.1144 54.3424L10.7666 62.7652C12.3816 63.8779 14.1473 64.7131 16.0662 65.2695C17.9839 65.8258 20.1552 66.1046 22.5777 66.1046C26.9694 66.1046 30.4763 65.4528 33.101 64.1477C35.7244 62.844 37.7193 60.9877 39.0819 58.579C39.7452 57.4069 40.2964 56.1277 40.7381 54.7426C41.6963 56.3174 42.8013 57.78 44.0544 59.1302C46.4009 61.6603 49.1145 63.6211 52.1938 65.0113C55.2718 66.4028 58.5778 67.0986 62.1117 67.0986C67.7836 67.0986 72.7792 64.9545 77.1027 60.6676V66.7191H85.734V50.3176L77.8599 50.3782L77.8612 50.3808Z" fill="white"/>
<path d="M85.7349 42.043H63.1738V44.1522H85.7349V42.043Z" fill="white"/>
<path d="M85.7349 45.2378H63.1738V47.347H85.7349V45.2378Z" fill="white"/>
<path d="M85.7349 48.4146H63.1738V50.5238H85.7349V48.4146Z" fill="white"/>
<path d="M88.987 66.476C89.0952 66.4644 89.1493 66.4424 89.2085 66.3985C89.2987 66.3262 89.3489 66.201 89.3489 66.0474C89.3489 65.8164 89.2471 65.6782 89.0797 65.6782C88.987 65.6782 88.9059 65.726 88.8698 65.8047C88.8402 65.868 88.8183 65.9429 88.7474 66.2553C88.6869 66.5315 88.6521 66.627 88.5736 66.738C88.4422 66.9265 88.2413 67.0298 87.9992 67.0298C87.5381 67.0298 87.2471 66.658 87.2471 66.0668C87.2471 65.686 87.3643 65.3943 87.5884 65.2329C87.6875 65.158 87.7764 65.1219 87.9477 65.0832L88.0159 65.7195C87.8215 65.7557 87.7403 65.8641 87.7403 66.0913C87.7403 66.2746 87.8395 66.4101 87.9773 66.4101C88.061 66.4101 88.1241 66.365 88.1692 66.2694C88.1872 66.229 88.2203 66.0909 88.2684 65.8551C88.316 65.6266 88.3675 65.4833 88.4396 65.3684C88.5749 65.1529 88.7745 65.0444 89.0501 65.0444C89.2742 65.0444 89.4661 65.1167 89.6013 65.2548C89.7687 65.4291 89.8563 65.6924 89.8563 66.0448C89.8563 66.3004 89.8022 66.5521 89.7095 66.7135C89.6258 66.8632 89.497 66.9743 89.3257 67.0375C89.2536 67.0672 89.1853 67.0827 89.0475 67.1033L88.987 66.4786V66.476Z" fill="white"/>
<path d="M87.3066 64.021C87.429 64.0391 87.5307 64.0455 87.7497 64.0455H89.3544C89.5604 64.0455 89.6712 64.0391 89.7974 64.021V64.6819C89.6802 64.6638 89.5553 64.6574 89.3544 64.6574H87.7497C87.5256 64.6574 87.438 64.6638 87.3066 64.6819V64.021Z" fill="white"/>
<path d="M88.5311 62.1635C88.6599 62.077 88.7552 62.0189 88.8878 61.9479C88.75 61.9596 88.6122 61.966 88.4448 61.966H87.7622C87.5652 61.966 87.4454 61.9725 87.3076 61.9905V61.3516C87.4428 61.3696 87.5678 61.3761 87.7622 61.3761H89.3528C89.5356 61.3761 89.6735 61.3671 89.7984 61.3516V62.0086C89.685 62.0628 89.5743 62.1312 89.4185 62.2332L88.5826 62.7883C88.4628 62.8696 88.3727 62.9199 88.2143 63.0038C88.3495 62.9884 88.5131 62.9832 88.6599 62.9832H89.3309C89.5369 62.9832 89.6696 62.9767 89.7984 62.9587V63.5976C89.6812 63.5796 89.5498 63.5731 89.3283 63.5731H87.7532C87.5794 63.5731 87.4454 63.5796 87.3076 63.5976V62.9458C87.3888 62.9161 87.5085 62.8502 87.6824 62.7328L88.5324 62.1622L88.5311 62.1635Z" fill="white"/>
<path d="M88.1757 59.3212C87.9026 59.378 87.7687 59.5367 87.7687 59.7949C87.7687 60.1615 88.0559 60.3745 88.5504 60.3745C89.045 60.3745 89.3348 60.1525 89.3348 59.7807C89.3348 59.6155 89.2665 59.4748 89.1454 59.387C89.0733 59.3354 89.0141 59.3147 88.8879 59.2966L88.9806 58.6719C89.2356 58.7287 89.3824 58.7945 89.5279 58.921C89.7404 59.1069 89.8538 59.3986 89.8538 59.7614C89.8538 60.1241 89.7404 60.4365 89.5241 60.6495C89.3 60.8715 88.9497 60.998 88.5479 60.998C88.1461 60.998 87.7958 60.8715 87.5626 60.6353C87.3617 60.4287 87.251 60.1254 87.251 59.7743C87.251 59.387 87.3823 59.0837 87.6438 58.8887C87.7661 58.7932 87.8769 58.7416 88.0546 58.7029L88.1744 59.3212H88.1757Z" fill="white"/>
<path d="M89.8191 56.4551C89.8036 56.5842 89.7985 56.6926 89.7985 56.9508V57.8957C89.7985 58.1241 89.801 58.208 89.8075 58.3371C89.6877 58.3191 89.577 58.3126 89.3709 58.3126H87.7353C87.5498 58.3126 87.4442 58.3191 87.2987 58.3371C87.3051 58.2145 87.3077 58.1306 87.3077 57.8957V56.9379C87.3077 56.7339 87.3013 56.6319 87.2871 56.4912H87.8473C87.8319 56.6293 87.8267 56.7378 87.8267 56.9379V57.7188H88.2672V57.0708C88.2672 56.8733 88.2646 56.801 88.2466 56.6203H88.8004C88.7849 56.761 88.7798 56.863 88.7798 57.0708V57.7188H89.2833V56.9443C89.2833 56.7158 89.2769 56.5842 89.2627 56.4551H89.8229H89.8191Z" fill="white"/>
<path d="M87.2855 54.8055C87.3035 54.6971 87.3061 54.6197 87.3061 54.4454V54.0646C87.3061 53.8516 87.3061 53.8129 87.2945 53.6928C87.4529 53.7083 87.5791 53.7135 87.7762 53.7135H89.3448C89.5251 53.7135 89.65 53.707 89.7968 53.689V54.3434C89.659 54.3254 89.5186 54.3189 89.3448 54.3189H87.8174V54.4389C87.8174 54.5564 87.8238 54.6726 87.838 54.8055H87.2842H87.2855Z" fill="white"/>
<path d="M89.1342 52.0895C89.1998 52.0649 89.2295 52.0482 89.263 52.0172C89.3351 51.9513 89.3737 51.8545 89.3737 51.7345C89.3737 51.5667 89.299 51.4311 89.1638 51.3498C89.0685 51.293 88.9603 51.2659 88.7568 51.2478C88.9101 51.4105 88.9719 51.5809 88.9719 51.8455C88.9719 52.3864 88.6461 52.7375 88.1425 52.7375C87.6119 52.7375 87.25 52.3296 87.25 51.7345C87.25 51.3537 87.4058 51.0503 87.693 50.8696C87.8875 50.747 88.1721 50.6812 88.5018 50.6812C88.8315 50.6812 89.1123 50.7405 89.3402 50.8528C89.5553 50.9574 89.7266 51.1497 89.7948 51.3627C89.8335 51.4828 89.858 51.6299 89.858 51.7655C89.858 52.0507 89.7807 52.2818 89.6248 52.4587C89.5321 52.5606 89.451 52.6123 89.2681 52.6897L89.1329 52.0895H89.1342ZM88.1129 51.3085C87.8888 51.3085 87.733 51.4828 87.733 51.7319C87.733 51.981 87.8888 52.1527 88.1167 52.1527C88.3447 52.1527 88.5005 51.9901 88.5005 51.7448C88.5005 51.4995 88.3447 51.3098 88.1142 51.3098L88.1129 51.3085Z" fill="white"/>
<path d="M89.5734 50.0603C89.4742 50.1596 89.3609 50.2345 89.2411 50.2797C89.0286 50.3572 88.7981 50.3972 88.5559 50.3972C88.2417 50.3972 87.9146 50.3223 87.7266 50.2087C87.4213 50.0254 87.2539 49.713 87.2539 49.3348C87.2539 49.0431 87.3531 48.7888 87.5321 48.6055C87.6313 48.5061 87.7446 48.4312 87.8644 48.386C88.0769 48.3086 88.3074 48.2686 88.5534 48.2686C88.8676 48.2686 89.1973 48.3434 89.3853 48.457C89.6854 48.6377 89.8528 48.9527 89.8528 49.3335C89.8528 49.6278 89.7575 49.877 89.5747 50.0603H89.5734ZM88.5315 49.7814C89.0672 49.7814 89.3428 49.6278 89.3428 49.3309C89.3428 49.034 89.0737 48.8869 88.5405 48.8869C88.0073 48.8869 87.7588 49.0431 87.7588 49.3335C87.7588 49.6239 88.0434 49.7801 88.5315 49.7801V49.7814Z" fill="white"/>
<path d="M89.1342 47.3473C89.1998 47.3228 89.2295 47.3047 89.263 47.275C89.3351 47.2092 89.3737 47.1123 89.3737 46.9923C89.3737 46.8245 89.299 46.6889 89.1638 46.6076C89.0685 46.5508 88.9603 46.5237 88.7568 46.5056C88.9101 46.6683 88.9719 46.8387 88.9719 47.1033C88.9719 47.6442 88.6461 47.9953 88.1425 47.9953C87.6119 47.9953 87.25 47.5874 87.25 46.9923C87.25 46.6115 87.4058 46.3081 87.693 46.1274C87.8875 46.0048 88.1721 45.939 88.5018 45.939C88.8315 45.939 89.1123 45.9983 89.3402 46.1106C89.5553 46.2152 89.7266 46.4075 89.7948 46.6205C89.8335 46.7406 89.858 46.8877 89.858 47.0233C89.858 47.3086 89.7807 47.5396 89.6248 47.7165C89.5321 47.8184 89.451 47.8701 89.2681 47.9475L89.1329 47.3473H89.1342ZM88.1129 46.5663C87.8888 46.5663 87.733 46.7406 87.733 46.9897C87.733 47.2388 87.8888 47.4105 88.1167 47.4105C88.3447 47.4105 88.5005 47.2479 88.5005 47.0026C88.5005 46.7574 88.3447 46.5676 88.1142 46.5676L88.1129 46.5663Z" fill="white"/>
</svg>
